<svg version="1" xmlns="http://www.w3.org/2000/svg" viewBox="0 0 255 255"><path d="M213 25L190 2a6 6 0 0 0-8 9l12 12h-57a6 6 0 0 0 0 12h58l-12 13a6 6 0 1 0 8 8l22-22c3-3 3-6 0-9zM193 96c-7-4-13-6-19-6-6-9-16-14-27-14l-7 1a33 33 0 0 0-26-12V28c0-8-4-16-9-21-6-4-12-7-20-7-7 0-15 3-20 8s-8 12-8 20v87c-8 4-13 11-15 19-4 13-1 29 9 50 6 14 14 26 18 32l2 22c0 10 9 17 18 17h79c10 0 18-7 19-16l3-24c19-29 25-59 20-89-3-17-11-25-17-30zm-14 114l-1 3-3 24c0 4-3 6-7 6H89c-3 0-6-3-6-6l-2-24-1-3c-8-10-48-71-15-85 2-1 4-4 4-6V28c0-11 8-16 16-16s17 5 17 16v43a7 7 0 0 0 8 7l4-1c6 0 13 2 18 10a7 7 0 0 0 8 2l7-1c6 0 14 2 19 11l5 3c7 0 24 3 27 26 4 21 2 49-19 82z"/></svg>
